<?xml version="1.0" standalone="no"?>
<!DOCTYPE svg PUBLIC "-//W3C//DTD SVG 20010904//EN"
 "http://www.w3.org/TR/2001/REC-SVG-20010904/DTD/svg10.dtd">
<svg version="1.0" xmlns="http://www.w3.org/2000/svg"
 width="394" height="399" viewBox="0 0 394 399"
 preserveAspectRatio="xMidYMid meet">

<g transform="translate(0.000000,300.000000) scale(0.100000,-0.100000)"
fill="#000000" stroke="none">
<path d="M1418 1993 c7 -3 16 -2 19 1 4 3 -2 6 -13 5 -11 0 -14 -3 -6 -6z"/>
<path d="M1322 1975 c-130 -57 -266 -274 -249 -398 11 -83 73 -96 236 -50 69
19 89 29 75 34 -28 11 -41 10 -24 -2 11 -8 8 -9 -15 -5 -23 5 -26 4 -15 -4 12
-8 10 -10 -10 -8 -14 1 -51 -6 -83 -16 -99 -30 -157 -4 -157 72 0 29 2 32 19
22 35 -18 91 -11 218 30 106 34 244 65 368 84 17 2 -19 2 -80 -1 -66 -2 -179
-18 -282 -39 -129 -25 -178 -31 -197 -24 -31 11 -32 19 -6 70 19 38 20 38 57
28 22 -6 70 -8 113 -4 63 5 90 14 174 56 106 54 137 59 206 35 24 -8 45 -13
47 -11 2 2 -19 12 -48 21 -58 19 -139 22 -181 6 -65 -25 -274 -22 -272 4 0 6
13 13 30 16 19 5 22 7 9 8 -17 2 -15 6 15 32 19 16 55 36 80 44 25 7 36 14 25
14 -11 0 -35 -6 -53 -14z"/>
<path d="M1468 1983 c6 -2 18 -2 25 0 6 3 1 5 -13 5 -14 0 -19 -2 -12 -5z"/>
<path d="M1550 1960 c8 -5 20 -10 25 -10 6 0 3 5 -5 10 -8 5 -19 10 -25 10 -5
0 -3 -5 5 -10z"/>
<path d="M1630 1926 c0 -3 9 -10 20 -16 11 -6 20 -8 20 -6 0 3 -9 10 -20 16
-11 6 -20 8 -20 6z"/>
<path d="M1918 1683 c6 -2 18 -2 25 0 6 3 1 5 -13 5 -14 0 -19 -2 -12 -5z"/>
<path d="M1818 1653 c7 -3 16 -2 19 1 4 3 -2 6 -13 5 -11 0 -14 -3 -6 -6z"/>
<path d="M1893 1633 c9 -2 23 -2 30 0 6 3 -1 5 -18 5 -16 0 -22 -2 -12 -5z"/>
<path d="M1808 1623 c7 -3 16 -2 19 1 4 3 -2 6 -13 5 -11 0 -14 -3 -6 -6z"/>
<path d="M1518 1593 c7 -3 16 -2 19 1 4 3 -2 6 -13 5 -11 0 -14 -3 -6 -6z"/>
<path d="M1425 1570 c-13 -5 -14 -9 -5 -9 8 0 24 4 35 9 13 5 14 9 5 9 -8 0
-24 -4 -35 -9z"/>
<path d="M1304 1454 c-18 -14 -18 -15 4 -4 12 6 22 13 22 15 0 8 -5 6 -26 -11z"/>
</g>
</svg>
